<?xml version="1.0" encoding="UTF-8" standalone="no"?>
<svg
   height="20"
   viewBox="0 -960 640 800"
   width="16"
   fill="#e3e3e3"
   version="1.1"
   id="svg4"
   sodipodi:docname="notifications_24dp_E3E3E3_FILL0_wght400_GRAD0_opsz24.svg"
   inkscape:version="1.2.2 (732a01da63, 2022-12-09)"
   xmlns:inkscape="http://www.inkscape.org/namespaces/inkscape"
   xmlns:sodipodi="http://sodipodi.sourceforge.net/DTD/sodipodi-0.dtd"
   xmlns="http://www.w3.org/2000/svg"
   xmlns:svg="http://www.w3.org/2000/svg">
  <defs
     id="defs8" />
  <sodipodi:namedview
     id="namedview6"
     pagecolor="#ffffff"
     bordercolor="#000000"
     borderopacity="0.25"
     inkscape:showpageshadow="2"
     inkscape:pageopacity="0.0"
     inkscape:pagecheckerboard="0"
     inkscape:deskcolor="#d1d1d1"
     showgrid="false"
     inkscape:zoom="34.541667"
     inkscape:cx="8.0627261"
     inkscape:cy="10.016888"
     inkscape:window-width="1920"
     inkscape:window-height="1009"
     inkscape:window-x="1912"
     inkscape:window-y="71"
     inkscape:window-maximized="1"
     inkscape:current-layer="svg4" />
  <path
     d="m 0,-280 v -80 h 80 v -280 q 0,-83 50,-147.5 50,-64.5 130,-84.5 v -28 q 0,-25 17.5,-42.5 17.5,-17.5 42.5,-17.5 25,0 42.5,17.5 17.5,17.5 17.5,42.5 v 28 q 80,20 130,84.5 50,64.5 50,147.5 v 280 h 80 v 80 z m 320,-300 z m 0,420 q -33,0 -56.5,-23.5 Q 240,-207 240,-240 h 160 q 0,33 -23.5,56.5 Q 353,-160 320,-160 Z M 160,-360 h 320 v -280 q 0,-66 -47,-113 -47,-47 -113,-47 -66,0 -113,47 -47,47 -47,113 z"
     id="path2" />
  <path
     style="fill:#000000;stroke-width:1.15802"
     d="m 0.386008,-319.71048 v -39.37276 h 39.951748 39.951748 l 0.01195,-144.4632 c 0.0074,-89.65276 0.466312,-149.73556 1.209516,-158.35947 5.004416,-58.06966 30.71093,-111.27613 73.58397,-152.30157 26.5298,-25.38651 57.082,-43.04636 93.1077,-53.81832 l 12.15924,-3.63568 0.634,-21.34657 c 0.546,-18.38466 0.9908,-22.24723 3.2052,-27.83761 5.7328,-14.47395 17.0342,-26.44997 31.48052,-33.35966 8.6476,-4.13616 8.75312,-4.15413 24.40208,-4.15413 h 15.71696 l 9.89936,4.90351 c 14.55608,7.21017 24.63436,18.45517 30.79192,34.35662 1.3272,3.4272 2.0192,10.67212 2.4916,26.09127 l 0.6544,21.34657 12.15924,3.63664 c 36.184,10.82216 66.47056,28.32814 93.10768,53.81736 42.91172,41.06243 68.57508,94.17957 73.584,152.30157 0.7432,8.62391 1.202,68.70671 1.2096,158.35947 l 0.0119,144.4632 h 39.95176 39.95176 v 39.37276 39.37272 H 320 0.386008 Z M 480.386,-508.46804 c 0,-136.71728 -0.164,-149.67348 -2.0212,-159.48687 -6.35872,-33.60351 -20.60916,-60.54345 -44.87868,-84.84144 -25.45588,-25.48576 -51.86128,-39.45286 -85.51916,-45.23523 -24.9182,-4.28092 -56.08136,-2.17869 -78.68488,5.30795 -46.62417,15.44269 -87.13228,56.24662 -101.99873,102.74365 -7.86315,24.5932 -7.44003,15.02528 -7.91981,179.09078 -0.2392,81.78536 -0.166,149.4012 0.1624,150.2574 0.49704,1.2952 27.49843,1.5072 160.72866,1.2632 l 160.13128,-0.292 z"
     id="path931" />
  <path
     style="fill:#000000;stroke-width:1.15802"
     d="m 300.31364,-162.88076 c -17.78384,-4.65408 -36.21432,-18.00604 -46.76808,-33.88112 -7.59632,-11.42656 -11.06816,-21.42412 -12.83692,-36.96552 l -0.692,-6.0796 H 320 399.98328 l -0.692,6.0796 c -0.38,3.3436 -1.252,8.6852 -1.936,11.86976 -5.85008,27.22504 -30.23252,51.96184 -58.20168,59.04756 -8.76676,2.2208 -30.23244,2.182 -38.83992,-0.072 z"
     id="path933" />
</svg>
