<?xml version="1.0" encoding="UTF-8" standalone="no"?>
<svg
   height="24px"
   viewBox="0 -960 960 960"
   width="24px"
   fill="#e3e3e3"
   version="1.1"
   id="svg4"
   sodipodi:docname="notifications_24dp_E3E3E3_FILL0_wght400_GRAD0_opsz24.svg"
   inkscape:version="1.2.2 (732a01da63, 2022-12-09)"
   xmlns:inkscape="http://www.inkscape.org/namespaces/inkscape"
   xmlns:sodipodi="http://sodipodi.sourceforge.net/DTD/sodipodi-0.dtd"
   xmlns="http://www.w3.org/2000/svg"
   xmlns:svg="http://www.w3.org/2000/svg">
  <defs
     id="defs8" />
  <sodipodi:namedview
     id="namedview6"
     pagecolor="#ffffff"
     bordercolor="#000000"
     borderopacity="0.25"
     inkscape:showpageshadow="2"
     inkscape:pageopacity="0.0"
     inkscape:pagecheckerboard="0"
     inkscape:deskcolor="#d1d1d1"
     showgrid="false"
     inkscape:zoom="34.541667"
     inkscape:cx="12.028951"
     inkscape:cy="12.014475"
     inkscape:window-width="1920"
     inkscape:window-height="1009"
     inkscape:window-x="1912"
     inkscape:window-y="71"
     inkscape:window-maximized="1"
     inkscape:current-layer="svg4" />
  <path
     d="M160-200v-80h80v-280q0-83 50-147.5T420-792v-28q0-25 17.5-42.5T480-880q25 0 42.5 17.5T540-820v28q80 20 130 84.5T720-560v280h80v80H160Zm320-300Zm0 420q-33 0-56.5-23.5T400-160h160q0 33-23.5 56.5T480-80ZM320-280h320v-280q0-66-47-113t-113-47q-66 0-113 47t-47 113v280Z"
     id="path2" />
  <path
     style="fill:#000000;stroke-width:0.0289505"
     d="m 4.0096502,18.007238 v -0.984319 h 0.9987937 0.9987937 l 2.988e-4,-3.61158 C 6.0077217,11.17002 6.0191942,9.6679501 6.0377743,9.4523522 6.1628847,8.0006108 6.8055476,6.6704491 7.8773735,5.644813 8.5406186,5.0101503 9.3044236,4.5686539 10.205066,4.299355 l 0.303981,-0.090892 0.01585,-0.5336643 c 0.01365,-0.4596165 0.02477,-0.5561807 0.08013,-0.6959403 0.14332,-0.3618486 0.425855,-0.6612492 0.787013,-0.8339914 0.21619,-0.103404 0.218828,-0.1038532 0.610052,-0.1038532 h 0.392924 L 12.6425,2.1636015 c 0.363902,0.1802542 0.615859,0.4613792 0.769798,0.8589155 0.03318,0.08568 0.05048,0.2668031 0.06229,0.6522817 l 0.01636,0.5336643 0.303981,0.090916 c 0.9046,0.2705541 1.661764,0.7082036 2.327692,1.345434 1.072793,1.0265608 1.714377,2.3544892 1.8396,3.8075392 0.01858,0.2155979 0.03005,1.7176678 0.03024,3.9589868 l 2.98e-4,3.61158 h 0.998794 0.998794 v 0.984319 0.984318 H 12 4.0096502 Z M 16.00965,13.288299 c 0,-3.4179319 -0.0041,-3.7418369 -0.05053,-3.9871717 C 15.800152,8.4610396 15.443891,7.7875411 14.837153,7.1800913 14.200756,6.5429472 13.540621,6.1937697 12.699174,6.0492104 12.076219,5.9421875 11.29714,5.9947432 10.732052,6.1819093 9.5664478,6.5679764 8.553745,7.5880748 8.1820838,8.7505005 7.9855049,9.3653304 7.9960829,9.1261326 7.9840884,13.22777 c -0.00598,2.044634 -0.00415,3.73503 0.00406,3.756435 0.012426,0.03238 0.6874608,0.03768 4.0182166,0.03158 l 4.003282,-0.0073 z"
     id="path931"
     transform="matrix(40,0,0,40,0,-960)" />
  <path
     style="fill:#000000;stroke-width:0.0289505"
     d="M 11.507841,21.927981 C 11.063245,21.811629 10.602483,21.47783 10.338639,21.080953 10.148731,20.795289 10.061935,20.54535 10.017716,20.156815 l -0.0173,-0.15199 H 12 13.999582 l -0.0173,0.15199 c -0.0095,0.08359 -0.0313,0.21713 -0.0484,0.296744 -0.146252,0.680626 -0.755813,1.299046 -1.455042,1.476189 -0.219169,0.05552 -0.755811,0.05455 -0.970998,-0.0018 z"
     id="path933"
     transform="matrix(40,0,0,40,0,-960)" />
</svg>
